<svg width="20.000000" height="20.000000" viewBox="0 0 20 20" fill="none" xmlns="http://www.w3.org/2000/svg" xmlns:xlink="http://www.w3.org/1999/xlink">
	<desc>
			Created with Pixso.
	</desc>
	<defs>
		<clipPath id="clip13_939">
			<rect id="fi_10629607" width="20.000000" height="20.000000" fill="white" fill-opacity="0"/>
		</clipPath>
	</defs>
	<rect id="fi_10629607" width="20.000000" height="20.000000" fill="#FFFFFF" fill-opacity="0"/>
	<g clip-path="url(#clip13_939)">
		<path id="Vector" d="M19.375 10C19.375 10.8 18.3922 11.4594 18.1953 12.1969C17.9922 12.9594 18.5062 14.0219 18.1204 14.6891C17.7281 15.3672 16.5485 15.4484 15.9984 15.9984C15.4485 16.5484 15.3672 17.7281 14.6891 18.1203C14.0219 18.5062 12.9594 17.9922 12.1969 18.1953C11.4594 18.3922 10.8 19.375 10 19.375C9.19995 19.375 8.54065 18.3922 7.8031 18.1953C7.04065 17.9922 5.97815 18.5062 5.31091 18.1203C4.63281 17.7281 4.55151 16.5484 4.00159 15.9984C3.45154 15.4484 2.27185 15.3672 1.87964 14.6891C1.49377 14.0219 2.00781 12.9594 1.80469 12.1969C1.60779 11.4594 0.625 10.8 0.625 10C0.625 9.2 1.60779 8.54063 1.80469 7.80312C2.00781 7.04063 1.49377 5.97813 1.87964 5.31094C2.27185 4.63281 3.45154 4.55156 4.00159 4.00156C4.55151 3.45156 4.63281 2.27187 5.31091 1.87968C5.97815 1.49375 7.04065 2.00781 7.8031 1.80469C8.54065 1.60781 9.19995 0.625 10 0.625C10.8 0.625 11.4594 1.60781 12.1969 1.80469C12.9594 2.00781 14.0219 1.49375 14.6891 1.87968C15.3672 2.27187 15.4485 3.45156 15.9984 4.00156C16.5485 4.55156 17.7281 4.63281 18.1204 5.31094C18.5062 5.97813 17.9922 7.04063 18.1953 7.80312C18.3922 8.54063 19.375 9.2 19.375 10Z" fill="#2568EF" fill-opacity="1.000000" fill-rule="nonzero"/>
		<path id="Vector" d="M12.7094 7.20626L9.14062 10.775L7.29065 8.92657C6.88904 8.52501 6.23755 8.52501 5.83594 8.92657C5.43445 9.32814 5.43445 9.9797 5.83594 10.3813L8.43127 12.9766C8.8219 13.3672 9.4563 13.3672 9.84692 12.9766L14.1625 8.66095C14.5641 8.25938 14.5641 7.60783 14.1625 7.20626C13.761 6.8047 13.111 6.8047 12.7094 7.20626Z" fill="#FFFCEE" fill-opacity="1.000000" fill-rule="nonzero"/>
	</g>
</svg>
